<?xml version="1.0" standalone="no"?>
<!DOCTYPE svg PUBLIC "-//W3C//DTD SVG 20010904//EN"
 "http://www.w3.org/TR/2001/REC-SVG-20010904/DTD/svg10.dtd">
<svg version="1.0" xmlns="http://www.w3.org/2000/svg"
 width="311.000000pt" height="311.000000pt" viewBox="0 0 311.000000 311.000000"
 preserveAspectRatio="xMidYMid meet">
<metadata>
Created by potrace 1.11, written by Peter Selinger 2001-2013
</metadata>
<g transform="translate(0.000000,311.000000) scale(0.100000,-0.100000)"
fill="#000000" stroke="none">
<path d="M480 2070 c-8 -5 -15 -66 -25 -215 -18 -283 -34 -375 -77 -462 -27
-54 -52 -77 -86 -79 -15 -1 -31 -3 -35 -3 -9 -1 1 -379 9 -393 3 -5 51 -8 107
-8 l102 0 0 113 0 112 253 3 252 2 0 -115 0 -115 100 0 c73 0 100 3 101 13 1
6 3 21 4 32 1 11 6 79 10 150 4 72 9 147 10 168 2 40 2 40 -62 39 -30 0 -33 2
-33 31 -1 18 -1 188 -1 380 1 268 -2 347 -12 348 -59 4 -611 3 -617 -1z m400
-463 l0 -294 -153 0 -154 0 23 47 c44 92 66 203 79 402 6 81 10 120 14 136 1
1 44 2 96 2 l95 0 0 -293z"/>
<path d="M1948 2058 c-10 -10 -18 -23 -18 -29 0 -6 -11 -38 -24 -72 -14 -34
-79 -213 -146 -397 -66 -184 -125 -344 -130 -355 -30 -68 -34 -65 99 -65 l120
0 28 88 28 87 140 1 c77 0 145 -2 152 -4 7 -2 24 -42 39 -88 l26 -84 119 0
c75 0 119 4 119 10 0 6 -13 45 -29 88 -16 42 -91 246 -167 452 -76 206 -139
377 -140 379 -2 2 -47 4 -101 5 -81 1 -101 -2 -115 -16z m157 -413 c25 -81 43
-150 40 -153 -5 -6 -176 -5 -181 1 -3 2 17 72 42 155 26 84 49 151 50 149 2
-2 24 -70 49 -152z"/>
<path d="M1328 1329 c-63 -47 -55 -146 15 -182 81 -42 178 7 179 90 0 22 -6
49 -13 61 -32 51 -132 68 -181 31z"/>
<path d="M2628 1334 c-74 -40 -71 -151 5 -187 40 -20 72 -21 113 -7 84 30 89
162 8 198 -34 16 -93 14 -126 -4z"/>
</g>
</svg>
